<svg width="22" height="25" viewBox="0 0 22 25" fill="none" xmlns="http://www.w3.org/2000/svg">
<path d="M21.666 14.6372C21.3342 10.9087 19.3225 8.57221 17.5479 6.5104C15.9046 4.60161 14.4853 2.95327 14.4853 0.521725C14.4853 0.326413 14.3585 0.147897 14.1576 0.0583953C13.956 -0.0316437 13.7137 -0.0168976 13.5305 0.0980438C10.8652 1.74384 8.64133 4.51772 7.8645 7.1644C7.3252 9.00703 7.25385 11.0785 7.24384 12.4466C4.78247 11.993 4.2249 8.81582 4.21901 8.7812C4.19129 8.6164 4.07461 8.473 3.90486 8.39467C3.73336 8.31738 3.53175 8.31176 3.35787 8.38603C3.22881 8.43994 0.18978 9.77246 0.0129573 15.0928C0.000565621 15.2698 0 15.4474 0 15.6249C0 20.7936 4.87379 24.9992 10.864 24.9992C10.8722 24.9997 10.8811 25.0007 10.8881 24.9992C10.8905 24.9992 10.8928 24.9992 10.8958 24.9992C16.8712 24.9844 21.7279 20.7845 21.7279 15.6249C21.7279 15.3649 21.666 14.6372 21.666 14.6372ZM10.864 23.9576C8.86704 23.9576 7.24265 22.4644 7.24265 20.6289C7.24265 20.5664 7.24208 20.5033 7.24734 20.426C7.2715 19.6519 7.44188 19.1235 7.62871 18.772C7.97885 19.421 8.60477 20.0176 9.62152 20.0176C9.95513 20.0176 10.2251 19.7846 10.2251 19.4968C10.2251 18.7553 10.2428 17.8998 10.4567 17.1277C10.6471 16.4432 11.1021 15.7148 11.6786 15.131C11.935 15.8888 12.4348 16.5021 12.9229 17.1008C13.6213 17.9572 14.3433 18.8427 14.4701 20.3527C14.4777 20.4422 14.4854 20.5323 14.4854 20.6289C14.4853 22.4644 12.8609 23.9576 10.864 23.9576Z" fill="white"/>
</svg>
